<svg width="263" height="129" viewBox="0 0 263 129" fill="none" xmlns="http://www.w3.org/2000/svg">
<path d="M60.604 60.836V62.924H53.62V86H51.1V62.924H44.08V60.836H60.604ZM73.9431 65.984C75.4311 65.984 76.7631 66.296 77.9391 66.92C79.1391 67.544 80.0751 68.504 80.7471 69.8C81.4431 71.072 81.7911 72.632 81.7911 74.48V86H79.3071V74.768C79.3071 72.632 78.7671 71 77.6871 69.872C76.6311 68.744 75.1791 68.18 73.3311 68.18C71.4351 68.18 69.9231 68.78 68.7951 69.98C67.6671 71.18 67.1031 72.944 67.1031 75.272V86H64.5831V59.36H67.1031V69.692C67.7271 68.516 68.6391 67.604 69.8391 66.956C71.0631 66.308 72.4311 65.984 73.9431 65.984ZM105.148 75.164C105.148 76.028 105.124 76.688 105.076 77.144H88.7684C88.8404 78.632 89.2004 79.904 89.8484 80.96C90.4964 82.016 91.3484 82.82 92.4044 83.372C93.4604 83.9 94.6124 84.164 95.8604 84.164C97.4924 84.164 98.8604 83.768 99.9644 82.976C101.092 82.184 101.836 81.116 102.196 79.772H104.86C104.38 81.692 103.348 83.264 101.764 84.488C100.204 85.688 98.2364 86.288 95.8604 86.288C94.0124 86.288 92.3564 85.88 90.8924 85.064C89.4284 84.224 88.2764 83.048 87.4364 81.536C86.6204 80 86.2124 78.212 86.2124 76.172C86.2124 74.132 86.6204 72.344 87.4364 70.808C88.2524 69.272 89.3924 68.096 90.8564 67.28C92.3204 66.464 93.9884 66.056 95.8604 66.056C97.7324 66.056 99.3644 66.464 100.756 67.28C102.172 68.096 103.252 69.2 103.996 70.592C104.764 71.96 105.148 73.484 105.148 75.164ZM102.592 75.092C102.616 73.628 102.316 72.38 101.692 71.348C101.092 70.316 100.264 69.536 99.2084 69.008C98.1524 68.48 97.0004 68.216 95.7524 68.216C93.8804 68.216 92.2844 68.816 90.9644 70.016C89.6444 71.216 88.9124 72.908 88.7684 75.092H102.592ZM125.851 68.072C125.851 70.232 125.143 71.972 123.727 73.292C122.311 74.612 120.187 75.272 117.355 75.272H112.279V86H109.759V60.836H117.355C120.163 60.836 122.275 61.496 123.691 62.816C125.131 64.136 125.851 65.888 125.851 68.072ZM117.355 73.112C121.291 73.112 123.259 71.432 123.259 68.072C123.259 66.392 122.791 65.12 121.855 64.256C120.919 63.392 119.419 62.96 117.355 62.96H112.279V73.112H117.355ZM132.599 59.36V86H130.079V59.36H132.599ZM137.154 76.136C137.154 74.12 137.55 72.356 138.342 70.844C139.158 69.308 140.274 68.132 141.69 67.316C143.13 66.476 144.75 66.056 146.55 66.056C148.422 66.056 150.03 66.488 151.374 67.352C152.742 68.216 153.726 69.32 154.326 70.664V66.344H156.846V86H154.326V81.644C153.702 82.988 152.706 84.104 151.338 84.992C149.994 85.856 148.386 86.288 146.514 86.288C144.738 86.288 143.13 85.868 141.69 85.028C140.274 84.188 139.158 83 138.342 81.464C137.55 79.928 137.154 78.152 137.154 76.136ZM154.326 76.172C154.326 74.588 154.002 73.196 153.354 71.996C152.706 70.796 151.818 69.872 150.69 69.224C149.586 68.576 148.362 68.252 147.018 68.252C145.626 68.252 144.378 68.564 143.274 69.188C142.17 69.812 141.294 70.724 140.646 71.924C140.022 73.1 139.71 74.504 139.71 76.136C139.71 77.744 140.022 79.16 140.646 80.384C141.294 81.584 142.17 82.508 143.274 83.156C144.378 83.78 145.626 84.092 147.018 84.092C148.362 84.092 149.586 83.768 150.69 83.12C151.818 82.472 152.706 81.548 153.354 80.348C154.002 79.148 154.326 77.756 154.326 76.172ZM171.815 65.984C174.167 65.984 176.087 66.716 177.575 68.18C179.063 69.62 179.807 71.72 179.807 74.48V86H177.323V74.768C177.323 72.632 176.783 71 175.703 69.872C174.647 68.744 173.195 68.18 171.347 68.18C169.451 68.18 167.939 68.78 166.811 69.98C165.683 71.18 165.119 72.944 165.119 75.272V86H162.599V66.344H165.119V69.692C165.743 68.492 166.643 67.58 167.819 66.956C168.995 66.308 170.327 65.984 171.815 65.984ZM194.596 65.984C196.948 65.984 198.868 66.716 200.356 68.18C201.844 69.62 202.588 71.72 202.588 74.48V86H200.104V74.768C200.104 72.632 199.564 71 198.484 69.872C197.428 68.744 195.976 68.18 194.128 68.18C192.232 68.18 190.72 68.78 189.592 69.98C188.464 71.18 187.9 72.944 187.9 75.272V86H185.38V66.344H187.9V69.692C188.524 68.492 189.424 67.58 190.6 66.956C191.776 66.308 193.108 65.984 194.596 65.984ZM210.681 69.836C211.233 68.612 212.073 67.664 213.201 66.992C214.353 66.32 215.757 65.984 217.413 65.984V68.612H216.729C214.905 68.612 213.441 69.104 212.337 70.088C211.233 71.072 210.681 72.716 210.681 75.02V86H208.161V66.344H210.681V69.836Z" fill="black"/>
</svg>
