<svg width="589" height="664" viewBox="0 0 589 664" fill="none" xmlns="http://www.w3.org/2000/svg">
<path d="M223.604 29.836V31.924H216.62V55H214.1V31.924H207.08V29.836H223.604ZM236.943 34.984C238.431 34.984 239.763 35.296 240.939 35.92C242.139 36.544 243.075 37.504 243.747 38.8C244.443 40.072 244.791 41.632 244.791 43.48V55H242.307V43.768C242.307 41.632 241.767 40 240.687 38.872C239.631 37.744 238.179 37.18 236.331 37.18C234.435 37.18 232.923 37.78 231.795 38.98C230.667 40.18 230.103 41.944 230.103 44.272V55H227.583V28.36H230.103V38.692C230.727 37.516 231.639 36.604 232.839 35.956C234.063 35.308 235.431 34.984 236.943 34.984ZM268.148 44.164C268.148 45.028 268.124 45.688 268.076 46.144H251.768C251.84 47.632 252.2 48.904 252.848 49.96C253.496 51.016 254.348 51.82 255.404 52.372C256.46 52.9 257.612 53.164 258.86 53.164C260.492 53.164 261.86 52.768 262.964 51.976C264.092 51.184 264.836 50.116 265.196 48.772H267.86C267.38 50.692 266.348 52.264 264.764 53.488C263.204 54.688 261.236 55.288 258.86 55.288C257.012 55.288 255.356 54.88 253.892 54.064C252.428 53.224 251.276 52.048 250.436 50.536C249.62 49 249.212 47.212 249.212 45.172C249.212 43.132 249.62 41.344 250.436 39.808C251.252 38.272 252.392 37.096 253.856 36.28C255.32 35.464 256.988 35.056 258.86 35.056C260.732 35.056 262.364 35.464 263.756 36.28C265.172 37.096 266.252 38.2 266.996 39.592C267.764 40.96 268.148 42.484 268.148 44.164ZM265.592 44.092C265.616 42.628 265.316 41.38 264.692 40.348C264.092 39.316 263.264 38.536 262.208 38.008C261.152 37.48 260 37.216 258.752 37.216C256.88 37.216 255.284 37.816 253.964 39.016C252.644 40.216 251.912 41.908 251.768 44.092H265.592ZM288.851 37.072C288.851 39.232 288.143 40.972 286.727 42.292C285.311 43.612 283.187 44.272 280.355 44.272H275.279V55H272.759V29.836H280.355C283.163 29.836 285.275 30.496 286.691 31.816C288.131 33.136 288.851 34.888 288.851 37.072ZM280.355 42.112C284.291 42.112 286.259 40.432 286.259 37.072C286.259 35.392 285.791 34.12 284.855 33.256C283.919 32.392 282.419 31.96 280.355 31.96H275.279V42.112H280.355ZM295.599 28.36V55H293.079V28.36H295.599ZM300.154 45.136C300.154 43.12 300.55 41.356 301.342 39.844C302.158 38.308 303.274 37.132 304.69 36.316C306.13 35.476 307.75 35.056 309.55 35.056C311.422 35.056 313.03 35.488 314.374 36.352C315.742 37.216 316.726 38.32 317.326 39.664V35.344H319.846V55H317.326V50.644C316.702 51.988 315.706 53.104 314.338 53.992C312.994 54.856 311.386 55.288 309.514 55.288C307.738 55.288 306.13 54.868 304.69 54.028C303.274 53.188 302.158 52 301.342 50.464C300.55 48.928 300.154 47.152 300.154 45.136ZM317.326 45.172C317.326 43.588 317.002 42.196 316.354 40.996C315.706 39.796 314.818 38.872 313.69 38.224C312.586 37.576 311.362 37.252 310.018 37.252C308.626 37.252 307.378 37.564 306.274 38.188C305.17 38.812 304.294 39.724 303.646 40.924C303.022 42.1 302.71 43.504 302.71 45.136C302.71 46.744 303.022 48.16 303.646 49.384C304.294 50.584 305.17 51.508 306.274 52.156C307.378 52.78 308.626 53.092 310.018 53.092C311.362 53.092 312.586 52.768 313.69 52.12C314.818 51.472 315.706 50.548 316.354 49.348C317.002 48.148 317.326 46.756 317.326 45.172ZM334.815 34.984C337.167 34.984 339.087 35.716 340.575 37.18C342.063 38.62 342.807 40.72 342.807 43.48V55H340.323V43.768C340.323 41.632 339.783 40 338.703 38.872C337.647 37.744 336.195 37.18 334.347 37.18C332.451 37.18 330.939 37.78 329.811 38.98C328.683 40.18 328.119 41.944 328.119 44.272V55H325.599V35.344H328.119V38.692C328.743 37.492 329.643 36.58 330.819 35.956C331.995 35.308 333.327 34.984 334.815 34.984ZM357.596 34.984C359.948 34.984 361.868 35.716 363.356 37.18C364.844 38.62 365.588 40.72 365.588 43.48V55H363.104V43.768C363.104 41.632 362.564 40 361.484 38.872C360.428 37.744 358.976 37.18 357.128 37.18C355.232 37.18 353.72 37.78 352.592 38.98C351.464 40.18 350.9 41.944 350.9 44.272V55H348.38V35.344H350.9V38.692C351.524 37.492 352.424 36.58 353.6 35.956C354.776 35.308 356.108 34.984 357.596 34.984ZM373.681 38.836C374.233 37.612 375.073 36.664 376.201 35.992C377.353 35.32 378.757 34.984 380.413 34.984V37.612H379.729C377.905 37.612 376.441 38.104 375.337 39.088C374.233 40.072 373.681 41.716 373.681 44.02V55H371.161V35.344H373.681V38.836Z" fill="black"/>
</svg>
